<svg width="244" height="120" viewBox="0 0 244 120" fill="none" xmlns="http://www.w3.org/2000/svg">
<path d="M112.989 20.8371V43.8571H119.543V22.4132C119.543 20.6021 121.011 19.1337 122.823 19.1337H129.597V12.6628H121.168C116.65 12.6628 112.989 16.3192 112.989 20.8371Z" fill="#1F1F1F"/>
<path d="M28.0896 11.9824C20.5908 11.9824 14.7954 17.4548 14.7954 24.283V34.327C14.7709 34.8508 14.5311 35.3794 14.2423 35.8444C13.4983 37.0534 12.2599 37.7387 10.8453 37.7387H10.7817C9.3818 37.7387 8.09447 36.9898 7.39942 35.7759L7.27215 35.5507C6.99315 35.0661 6.84631 34.5179 6.84631 33.9599V32.9124H6.8512V12.6726H0.116009V29.8336H0.111115V33.5536C0.111115 35.399 0.600591 37.2149 1.52081 38.8008L1.62849 38.9917C3.4934 42.2174 6.95889 44.1802 10.6887 44.234C10.7425 44.234 10.7964 44.234 10.8502 44.234C14.5164 44.234 17.8448 42.3789 19.7734 39.256C20.395 38.2477 20.8649 37.1415 21.1292 35.9961C21.3005 35.2521 21.3495 34.4836 21.3495 33.7201V25.1591C21.3495 22.5062 22.6319 17.9785 28.0896 17.9785C31.7117 17.9785 34.0808 20.6608 34.0808 25.1591V43.8229H40.7621V24.283C40.7621 16.9751 34.9569 11.9824 28.0896 11.9824Z" fill="#1F1F1F"/>
<path d="M58.9707 36.9505L50.6838 12.6774H43.6941L54.0221 40.7587C54.7807 42.8193 56.7435 44.1899 58.9413 44.1899C61.1341 44.1899 63.0969 42.8242 63.8556 40.7684L74.2472 12.6774H67.1939L58.9707 36.9505Z" fill="#1F1F1F"/>
<path d="M91.8095 11.9824C82.5681 11.9824 76.4546 18.9721 76.4546 28.2135C76.4546 37.3911 82.573 44.4445 91.8095 44.4445C101.046 44.4445 107.164 37.3911 107.164 28.2135C107.164 18.977 101.046 11.9824 91.8095 11.9824ZM91.8095 38.326C86.8168 38.326 83.0087 34.0186 83.0087 28.2135C83.0087 22.3446 86.8168 18.1009 91.8095 18.1009C96.8658 18.1009 100.61 22.3446 100.61 28.2135C100.61 34.0186 96.8658 38.326 91.8095 38.326Z" fill="#1F1F1F"/>
<path d="M3.45859 6.68625H3.51243C5.35775 6.68625 6.85555 5.18845 6.85555 3.34312C6.85555 1.4978 5.35775 0 3.51243 0H3.45859C1.61326 0 0.115463 1.4978 0.115463 3.34312C0.115463 5.18845 1.61326 6.68625 3.45859 6.68625Z" fill="#1F1F1F"/>
<path d="M138.339 6.68625H138.393C140.239 6.68625 141.736 5.18845 141.736 3.34312C141.736 1.4978 140.239 0 138.393 0H138.339C136.494 0 134.996 1.4978 134.996 3.34312C134.996 5.18845 136.494 6.68625 138.339 6.68625Z" fill="#1F1F1F"/>
<path d="M240.473 37.2492H240.42C238.574 37.2492 237.076 38.747 237.076 40.5923C237.076 42.4376 238.574 43.9354 240.42 43.9354H240.473C242.319 43.9354 243.817 42.4376 243.817 40.5923C243.817 38.747 242.319 37.2492 240.473 37.2492Z" fill="#1F1F1F"/>
<path d="M218.741 11.9824C214.766 11.9824 211.286 13.5292 208.878 15.9863C206.533 13.4655 203.126 11.9824 199.392 11.9824C191.893 11.9824 186.097 17.4548 186.097 24.2781V43.818H192.651V25.1591C192.651 22.5062 193.934 17.9785 199.392 17.9785C203.014 17.9785 205.383 20.6608 205.383 25.1591V43.8229H205.446H212H212.064V24.283C212.064 24.2438 212.059 24.2095 212.059 24.1704C212.358 21.5174 213.914 17.9785 218.741 17.9785C222.363 17.9785 224.732 20.6608 224.732 25.1591V43.8229H231.413V24.283C231.413 16.9751 225.608 11.9824 218.741 11.9824Z" fill="#1F1F1F"/>
<path d="M166.43 11.9188C157.463 11.9188 151.731 18.8155 151.702 28.2673H151.697V32.702C151.697 33.8424 151.291 34.9535 150.557 35.8297C149.632 36.931 148.276 37.5625 146.837 37.5674H146.832C145.393 37.5674 144.037 36.9359 143.107 35.8297C142.368 34.9535 141.966 33.8424 141.966 32.6971V23.583H141.961V12.653H135.324V32.8439H135.334C135.368 35.4969 136.323 38.0715 138.041 40.1077C140.234 42.7117 143.44 44.1998 146.837 44.1998H146.846C150.253 44.1949 153.459 42.6971 155.647 40.0931C155.696 40.0343 155.74 39.9658 155.789 39.9022C158.427 42.746 162.221 44.376 166.807 44.376C172.177 44.376 176.92 41.9384 179.103 38.1351L174.11 35.0759C172.798 37.0094 170.488 38.6344 167.057 38.6344C162.064 38.6344 158.819 35.5752 158.129 30.2693H179.979C181.164 19.9707 176.357 11.9188 166.43 11.9188ZM158.188 25.4039C159 20.6608 161.932 17.6016 166.489 17.6016C171.609 17.6016 174.042 21.5957 174.042 25.4039H158.188Z" fill="#1F1F1F"/>
<path opacity="0.7" d="M31.4276 88L28.2116 76.8H29.7796L32.3396 86.016L35.0596 76.8H36.5636L39.2836 86.016L41.8436 76.8H43.4116L40.1956 88H38.4676L35.8116 79.056L33.1556 88H31.4276ZM45.8504 84.64C45.9891 85.3547 46.3144 85.9093 46.8264 86.304C47.3491 86.6987 47.9891 86.896 48.7464 86.896C49.8024 86.896 50.5704 86.5067 51.0504 85.728L52.2344 86.4C51.4558 87.6053 50.2824 88.208 48.7144 88.208C47.4451 88.208 46.4104 87.8133 45.6104 87.024C44.8211 86.224 44.4264 85.216 44.4264 84C44.4264 82.7947 44.8158 81.792 45.5944 80.992C46.3731 80.192 47.3811 79.792 48.6184 79.792C49.7918 79.792 50.7464 80.208 51.4824 81.04C52.2291 81.8613 52.6024 82.8533 52.6024 84.016C52.6024 84.2187 52.5864 84.4267 52.5544 84.64H45.8504ZM48.6184 81.104C47.8718 81.104 47.2531 81.3173 46.7624 81.744C46.2718 82.16 45.9678 82.72 45.8504 83.424H51.1944C51.0771 82.6667 50.7784 82.0907 50.2984 81.696C49.8184 81.3013 49.2584 81.104 48.6184 81.104ZM64.2346 77.936C62.8266 77.8187 62.1226 78.4267 62.1226 79.76V80H64.2346V81.344H62.1226V88H60.7306V81.344H59.4506V80H60.7306V79.76C60.7306 78.6827 61.0292 77.8667 61.6266 77.312C62.2346 76.7573 63.1039 76.5173 64.2346 76.592V77.936ZM71.7744 80H73.1664V88H71.7744V86.848C71.2091 87.7547 70.3451 88.208 69.1824 88.208C68.2438 88.208 67.4918 87.9147 66.9264 87.328C66.3611 86.7307 66.0784 85.9253 66.0784 84.912V80H67.4704V84.832C67.4704 85.4827 67.6464 85.9893 67.9984 86.352C68.3504 86.704 68.8358 86.88 69.4544 86.88C70.1478 86.88 70.7078 86.6667 71.1344 86.24C71.5611 85.8027 71.7744 85.136 71.7744 84.24V80ZM76.2457 88V76.32H77.6377V88H76.2457ZM87.0733 80V88H85.6813V81.344H82.7213V88H81.3293V81.344H80.0493V80H81.3293V79.76C81.3293 77.648 82.4973 76.592 84.8333 76.592C85.2706 76.592 85.82 76.6613 86.4813 76.8V78.064C85.8306 77.9787 85.2813 77.936 84.8333 77.936C84.108 77.936 83.5746 78.0747 83.2333 78.352C82.892 78.6187 82.7213 79.088 82.7213 79.76V80H87.0733ZM90.1657 88V76.32H91.5577V88H90.1657ZM94.6413 88V76.32H96.0333V88H94.6413ZM104.781 78.544C104.514 78.544 104.29 78.4533 104.109 78.272C103.928 78.0907 103.837 77.872 103.837 77.616C103.837 77.36 103.928 77.1413 104.109 76.96C104.29 76.768 104.514 76.672 104.781 76.672C105.037 76.672 105.256 76.768 105.437 76.96C105.618 77.1413 105.709 77.36 105.709 77.616C105.709 77.872 105.618 78.0907 105.437 78.272C105.256 78.4533 105.037 78.544 104.781 78.544ZM104.077 88V80H105.469V88H104.077ZM112.537 79.792C113.475 79.792 114.227 80.0907 114.793 80.688C115.358 81.2747 115.641 82.0747 115.641 83.088V88H114.249V83.168C114.249 82.5173 114.073 82.016 113.721 81.664C113.369 81.3013 112.883 81.12 112.265 81.12C111.571 81.12 111.011 81.3387 110.585 81.776C110.158 82.2027 109.945 82.864 109.945 83.76V88H108.553V80H109.945V81.152C110.51 80.2453 111.374 79.792 112.537 79.792ZM122.896 81.344H120.768V85.68C120.768 86.0747 120.842 86.3573 120.992 86.528C121.152 86.688 121.392 86.7733 121.712 86.784C122.032 86.784 122.426 86.7733 122.896 86.752V88C121.68 88.16 120.789 88.064 120.224 87.712C119.658 87.3493 119.376 86.672 119.376 85.68V81.344H117.792V80H119.376V78.176L120.768 77.76V80H122.896V81.344ZM126.074 84.64C126.212 85.3547 126.538 85.9093 127.05 86.304C127.572 86.6987 128.212 86.896 128.97 86.896C130.026 86.896 130.794 86.5067 131.274 85.728L132.458 86.4C131.679 87.6053 130.506 88.208 128.938 88.208C127.668 88.208 126.634 87.8133 125.834 87.024C125.044 86.224 124.65 85.216 124.65 84C124.65 82.7947 125.039 81.792 125.818 80.992C126.596 80.192 127.604 79.792 128.842 79.792C130.015 79.792 130.97 80.208 131.706 81.04C132.452 81.8613 132.826 82.8533 132.826 84.016C132.826 84.2187 132.81 84.4267 132.778 84.64H126.074ZM128.842 81.104C128.095 81.104 127.476 81.3173 126.986 81.744C126.495 82.16 126.191 82.72 126.074 83.424H131.418C131.3 82.6667 131.002 82.0907 130.522 81.696C130.042 81.3013 129.482 81.104 128.842 81.104ZM136.778 81.344C137.236 80.352 138.068 79.856 139.274 79.856V81.312C138.591 81.28 138.004 81.4613 137.514 81.856C137.023 82.2507 136.778 82.8853 136.778 83.76V88H135.386V80H136.778V81.344ZM145.58 79.792C146.518 79.792 147.27 80.0907 147.836 80.688C148.401 81.2747 148.684 82.0747 148.684 83.088V88H147.292V83.168C147.292 82.5173 147.116 82.016 146.764 81.664C146.412 81.3013 145.926 81.12 145.308 81.12C144.614 81.12 144.054 81.3387 143.628 81.776C143.201 82.2027 142.988 82.864 142.988 83.76V88H141.596V80H142.988V81.152C143.553 80.2453 144.417 79.792 145.58 79.792ZM158.211 80H159.603V88H158.211V86.624C157.518 87.68 156.51 88.208 155.187 88.208C154.067 88.208 153.112 87.8027 152.323 86.992C151.534 86.1707 151.139 85.1733 151.139 84C151.139 82.8267 151.534 81.8347 152.323 81.024C153.112 80.2027 154.067 79.792 155.187 79.792C156.51 79.792 157.518 80.32 158.211 81.376V80ZM155.363 86.864C156.174 86.864 156.851 86.592 157.395 86.048C157.939 85.4933 158.211 84.8107 158.211 84C158.211 83.1893 157.939 82.512 157.395 81.968C156.851 81.4133 156.174 81.136 155.363 81.136C154.563 81.136 153.891 81.4133 153.347 81.968C152.803 82.512 152.531 83.1893 152.531 84C152.531 84.8107 152.803 85.4933 153.347 86.048C153.891 86.592 154.563 86.864 155.363 86.864ZM167.024 81.344H164.896V85.68C164.896 86.0747 164.971 86.3573 165.12 86.528C165.28 86.688 165.52 86.7733 165.84 86.784C166.16 86.784 166.555 86.7733 167.024 86.752V88C165.808 88.16 164.917 88.064 164.352 87.712C163.787 87.3493 163.504 86.672 163.504 85.68V81.344H161.92V80H163.504V78.176L164.896 77.76V80H167.024V81.344ZM170.336 78.544C170.069 78.544 169.845 78.4533 169.664 78.272C169.483 78.0907 169.392 77.872 169.392 77.616C169.392 77.36 169.483 77.1413 169.664 76.96C169.845 76.768 170.069 76.672 170.336 76.672C170.592 76.672 170.811 76.768 170.992 76.96C171.173 77.1413 171.264 77.36 171.264 77.616C171.264 77.872 171.173 78.0907 170.992 78.272C170.811 78.4533 170.592 78.544 170.336 78.544ZM169.632 88V80H171.024V88H169.632ZM180.86 86.992C180.038 87.8027 179.041 88.208 177.868 88.208C176.694 88.208 175.697 87.8027 174.876 86.992C174.065 86.1813 173.66 85.184 173.66 84C173.66 82.816 174.065 81.8187 174.876 81.008C175.697 80.1973 176.694 79.792 177.868 79.792C179.041 79.792 180.038 80.1973 180.86 81.008C181.681 81.8187 182.092 82.816 182.092 84C182.092 85.184 181.681 86.1813 180.86 86.992ZM177.868 86.848C178.668 86.848 179.34 86.576 179.884 86.032C180.428 85.488 180.7 84.8107 180.7 84C180.7 83.1893 180.428 82.512 179.884 81.968C179.34 81.424 178.668 81.152 177.868 81.152C177.078 81.152 176.412 81.424 175.868 81.968C175.324 82.512 175.052 83.1893 175.052 84C175.052 84.8107 175.324 85.488 175.868 86.032C176.412 86.576 177.078 86.848 177.868 86.848ZM188.677 79.792C189.615 79.792 190.367 80.0907 190.933 80.688C191.498 81.2747 191.781 82.0747 191.781 83.088V88H190.389V83.168C190.389 82.5173 190.213 82.016 189.861 81.664C189.509 81.3013 189.023 81.12 188.405 81.12C187.711 81.12 187.151 81.3387 186.725 81.776C186.298 82.2027 186.085 82.864 186.085 83.76V88H184.693V80H186.085V81.152C186.65 80.2453 187.514 79.792 188.677 79.792ZM201.308 80H202.7V88H201.308V86.624C200.614 87.68 199.606 88.208 198.284 88.208C197.164 88.208 196.209 87.8027 195.42 86.992C194.63 86.1707 194.236 85.1733 194.236 84C194.236 82.8267 194.63 81.8347 195.42 81.024C196.209 80.2027 197.164 79.792 198.284 79.792C199.606 79.792 200.614 80.32 201.308 81.376V80ZM198.46 86.864C199.27 86.864 199.948 86.592 200.492 86.048C201.036 85.4933 201.308 84.8107 201.308 84C201.308 83.1893 201.036 82.512 200.492 81.968C199.948 81.4133 199.27 81.136 198.46 81.136C197.66 81.136 196.988 81.4133 196.444 81.968C195.9 82.512 195.628 83.1893 195.628 84C195.628 84.8107 195.9 85.4933 196.444 86.048C196.988 86.592 197.66 86.864 198.46 86.864ZM205.769 88V76.32H207.161V88H205.769ZM28.1533 103.792C29.2733 103.792 30.2279 104.203 31.0173 105.024C31.8066 105.835 32.2013 106.827 32.2013 108C32.2013 109.173 31.8066 110.171 31.0173 110.992C30.2279 111.803 29.2733 112.208 28.1533 112.208C26.8306 112.208 25.8226 111.68 25.1293 110.624V115.2H23.7373V104H25.1293V105.376C25.8226 104.32 26.8306 103.792 28.1533 103.792ZM27.9773 110.864C28.7773 110.864 29.4493 110.592 29.9933 110.048C30.5373 109.493 30.8093 108.811 30.8093 108C30.8093 107.189 30.5373 106.512 29.9933 105.968C29.4493 105.413 28.7773 105.136 27.9773 105.136C27.1666 105.136 26.4893 105.413 25.9453 105.968C25.4013 106.512 25.1293 107.189 25.1293 108C25.1293 108.811 25.4013 109.493 25.9453 110.048C26.4893 110.592 27.1666 110.864 27.9773 110.864ZM36.2143 105.344C36.6729 104.352 37.5049 103.856 38.7103 103.856V105.312C38.0276 105.28 37.4409 105.461 36.9503 105.856C36.4596 106.251 36.2143 106.885 36.2143 107.76V112H34.8223V104H36.2143V105.344ZM47.3468 110.992C46.5254 111.803 45.5281 112.208 44.3548 112.208C43.1814 112.208 42.1841 111.803 41.3627 110.992C40.5521 110.181 40.1467 109.184 40.1467 108C40.1467 106.816 40.5521 105.819 41.3627 105.008C42.1841 104.197 43.1814 103.792 44.3548 103.792C45.5281 103.792 46.5254 104.197 47.3468 105.008C48.1681 105.819 48.5787 106.816 48.5787 108C48.5787 109.184 48.1681 110.181 47.3468 110.992ZM44.3548 110.848C45.1548 110.848 45.8267 110.576 46.3707 110.032C46.9147 109.488 47.1867 108.811 47.1867 108C47.1867 107.189 46.9147 106.512 46.3707 105.968C45.8267 105.424 45.1548 105.152 44.3548 105.152C43.5654 105.152 42.8987 105.424 42.3547 105.968C41.8107 106.512 41.5387 107.189 41.5387 108C41.5387 108.811 41.8107 109.488 42.3547 110.032C42.8987 110.576 43.5654 110.848 44.3548 110.848ZM55.5957 103.792C56.7157 103.792 57.6704 104.203 58.4597 105.024C59.2491 105.835 59.6437 106.827 59.6437 108C59.6437 109.173 59.2491 110.171 58.4597 110.992C57.6704 111.803 56.7157 112.208 55.5957 112.208C54.2731 112.208 53.2651 111.68 52.5717 110.624V115.2H51.1797V104H52.5717V105.376C53.2651 104.32 54.2731 103.792 55.5957 103.792ZM55.4197 110.864C56.2197 110.864 56.8917 110.592 57.4357 110.048C57.9797 109.493 58.2517 108.811 58.2517 108C58.2517 107.189 57.9797 106.512 57.4357 105.968C56.8917 105.413 56.2197 105.136 55.4197 105.136C54.6091 105.136 53.9317 105.413 53.3877 105.968C52.8437 106.512 52.5717 107.189 52.5717 108C52.5717 108.811 52.8437 109.493 53.3877 110.048C53.9317 110.592 54.6091 110.864 55.4197 110.864ZM63.2408 108.64C63.3794 109.355 63.7048 109.909 64.2168 110.304C64.7394 110.699 65.3794 110.896 66.1368 110.896C67.1928 110.896 67.9608 110.507 68.4408 109.728L69.6248 110.4C68.8461 111.605 67.6728 112.208 66.1048 112.208C64.8354 112.208 63.8008 111.813 63.0008 111.024C62.2114 110.224 61.8168 109.216 61.8168 108C61.8168 106.795 62.2061 105.792 62.9848 104.992C63.7634 104.192 64.7714 103.792 66.0088 103.792C67.1821 103.792 68.1368 104.208 68.8728 105.04C69.6194 105.861 69.9928 106.853 69.9928 108.016C69.9928 108.219 69.9768 108.427 69.9448 108.64H63.2408ZM66.0088 105.104C65.2621 105.104 64.6434 105.317 64.1528 105.744C63.6621 106.16 63.3581 106.72 63.2408 107.424H68.5848C68.4674 106.667 68.1688 106.091 67.6888 105.696C67.2088 105.301 66.6488 105.104 66.0088 105.104ZM73.9449 105.344C74.4035 104.352 75.2355 103.856 76.4409 103.856V105.312C75.7582 105.28 75.1715 105.461 74.6809 105.856C74.1902 106.251 73.9449 106.885 73.9449 107.76V112H72.5529V104H73.9449V105.344ZM83.3024 105.344H81.1744V109.68C81.1744 110.075 81.249 110.357 81.3984 110.528C81.5584 110.688 81.7984 110.773 82.1184 110.784C82.4384 110.784 82.833 110.773 83.3024 110.752V112C82.0864 112.16 81.1957 112.064 80.6304 111.712C80.065 111.349 79.7824 110.672 79.7824 109.68V105.344H78.1984V104H79.7824V102.176L81.1744 101.76V104H83.3024V105.344ZM91.6663 104H93.1543L89.8903 112.496C89.5489 113.403 89.0689 114.091 88.4503 114.56C87.8423 115.04 87.1383 115.253 86.3383 115.2V113.904C87.3196 113.979 88.0396 113.435 88.4983 112.272L88.6423 111.968L85.1543 104H86.6423L89.3623 110.272L91.6663 104ZM106.861 100.8H108.253V112H106.861V110.624C106.167 111.68 105.159 112.208 103.837 112.208C102.717 112.208 101.762 111.803 100.973 110.992C100.183 110.171 99.7886 109.173 99.7886 108C99.7886 106.827 100.183 105.835 100.973 105.024C101.762 104.203 102.717 103.792 103.837 103.792C105.159 103.792 106.167 104.32 106.861 105.376V100.8ZM104.013 110.864C104.823 110.864 105.501 110.592 106.045 110.048C106.589 109.493 106.861 108.811 106.861 108C106.861 107.189 106.589 106.512 106.045 105.968C105.501 105.413 104.823 105.136 104.013 105.136C103.213 105.136 102.541 105.413 101.997 105.968C101.453 106.512 101.181 107.189 101.181 108C101.181 108.811 101.453 109.493 101.997 110.048C102.541 110.592 103.213 110.864 104.013 110.864ZM112.298 108.64C112.436 109.355 112.762 109.909 113.274 110.304C113.796 110.699 114.436 110.896 115.194 110.896C116.25 110.896 117.018 110.507 117.498 109.728L118.682 110.4C117.903 111.605 116.73 112.208 115.162 112.208C113.892 112.208 112.858 111.813 112.058 111.024C111.268 110.224 110.874 109.216 110.874 108C110.874 106.795 111.263 105.792 112.042 104.992C112.82 104.192 113.828 103.792 115.066 103.792C116.239 103.792 117.194 104.208 117.93 105.04C118.676 105.861 119.05 106.853 119.05 108.016C119.05 108.219 119.034 108.427 119.002 108.64H112.298ZM115.066 105.104C114.319 105.104 113.7 105.317 113.21 105.744C112.719 106.16 112.415 106.72 112.298 107.424H117.642C117.524 106.667 117.226 106.091 116.746 105.696C116.266 105.301 115.706 105.104 115.066 105.104ZM126.897 104H128.401L125.201 112H123.569L120.369 104H121.873L124.385 110.512L126.897 104ZM131.202 108.64C131.341 109.355 131.666 109.909 132.178 110.304C132.701 110.699 133.341 110.896 134.098 110.896C135.154 110.896 135.922 110.507 136.402 109.728L137.586 110.4C136.807 111.605 135.634 112.208 134.066 112.208C132.797 112.208 131.762 111.813 130.962 111.024C130.173 110.224 129.778 109.216 129.778 108C129.778 106.795 130.167 105.792 130.946 104.992C131.725 104.192 132.733 103.792 133.97 103.792C135.143 103.792 136.098 104.208 136.834 105.04C137.581 105.861 137.954 106.853 137.954 108.016C137.954 108.219 137.938 108.427 137.906 108.64H131.202ZM133.97 105.104C133.223 105.104 132.605 105.317 132.114 105.744C131.623 106.16 131.319 106.72 131.202 107.424H136.546C136.429 106.667 136.13 106.091 135.65 105.696C135.17 105.301 134.61 105.104 133.97 105.104ZM140.514 112V100.32H141.906V112H140.514ZM151.742 110.992C150.92 111.803 149.923 112.208 148.75 112.208C147.576 112.208 146.579 111.803 145.758 110.992C144.947 110.181 144.542 109.184 144.542 108C144.542 106.816 144.947 105.819 145.758 105.008C146.579 104.197 147.576 103.792 148.75 103.792C149.923 103.792 150.92 104.197 151.742 105.008C152.563 105.819 152.974 106.816 152.974 108C152.974 109.184 152.563 110.181 151.742 110.992ZM148.75 110.848C149.55 110.848 150.222 110.576 150.766 110.032C151.31 109.488 151.582 108.811 151.582 108C151.582 107.189 151.31 106.512 150.766 105.968C150.222 105.424 149.55 105.152 148.75 105.152C147.96 105.152 147.294 105.424 146.75 105.968C146.206 106.512 145.934 107.189 145.934 108C145.934 108.811 146.206 109.488 146.75 110.032C147.294 110.576 147.96 110.848 148.75 110.848ZM159.991 103.792C161.111 103.792 162.065 104.203 162.855 105.024C163.644 105.835 164.039 106.827 164.039 108C164.039 109.173 163.644 110.171 162.855 110.992C162.065 111.803 161.111 112.208 159.991 112.208C158.668 112.208 157.66 111.68 156.967 110.624V115.2H155.575V104H156.967V105.376C157.66 104.32 158.668 103.792 159.991 103.792ZM159.815 110.864C160.615 110.864 161.287 110.592 161.831 110.048C162.375 109.493 162.647 108.811 162.647 108C162.647 107.189 162.375 106.512 161.831 105.968C161.287 105.413 160.615 105.136 159.815 105.136C159.004 105.136 158.327 105.413 157.783 105.968C157.239 106.512 156.967 107.189 156.967 108C156.967 108.811 157.239 109.493 157.783 110.048C158.327 110.592 159.004 110.864 159.815 110.864ZM175.3 103.792C176.196 103.792 176.921 104.085 177.476 104.672C178.03 105.248 178.308 106.032 178.308 107.024V112H176.916V107.072C176.916 106.453 176.756 105.973 176.436 105.632C176.116 105.291 175.689 105.12 175.156 105.12C174.558 105.12 174.078 105.323 173.716 105.728C173.364 106.123 173.188 106.731 173.188 107.552V112H171.796V107.072C171.796 106.453 171.641 105.973 171.332 105.632C171.033 105.291 170.622 105.12 170.1 105.12C169.513 105.12 169.022 105.323 168.628 105.728C168.244 106.133 168.052 106.741 168.052 107.552V112H166.66V104H168.052V105.072C168.596 104.219 169.39 103.792 170.436 103.792C171.513 103.792 172.297 104.245 172.788 105.152C173.342 104.245 174.18 103.792 175.3 103.792ZM182.174 108.64C182.313 109.355 182.638 109.909 183.15 110.304C183.673 110.699 184.313 110.896 185.07 110.896C186.126 110.896 186.894 110.507 187.374 109.728L188.558 110.4C187.779 111.605 186.606 112.208 185.038 112.208C183.769 112.208 182.734 111.813 181.934 111.024C181.145 110.224 180.75 109.216 180.75 108C180.75 106.795 181.139 105.792 181.918 104.992C182.697 104.192 183.705 103.792 184.942 103.792C186.115 103.792 187.07 104.208 187.806 105.04C188.553 105.861 188.926 106.853 188.926 108.016C188.926 108.219 188.91 108.427 188.878 108.64H182.174ZM184.942 105.104C184.195 105.104 183.577 105.317 183.086 105.744C182.595 106.16 182.291 106.72 182.174 107.424H187.518C187.401 106.667 187.102 106.091 186.622 105.696C186.142 105.301 185.582 105.104 184.942 105.104ZM195.47 103.792C196.409 103.792 197.161 104.091 197.726 104.688C198.291 105.275 198.574 106.075 198.574 107.088V112H197.182V107.168C197.182 106.517 197.006 106.016 196.654 105.664C196.302 105.301 195.817 105.12 195.198 105.12C194.505 105.12 193.945 105.339 193.518 105.776C193.091 106.203 192.878 106.864 192.878 107.76V112H191.486V104H192.878V105.152C193.443 104.245 194.307 103.792 195.47 103.792ZM205.829 105.344H203.701V109.68C203.701 110.075 203.776 110.357 203.925 110.528C204.085 110.688 204.325 110.773 204.645 110.784C204.965 110.784 205.36 110.773 205.829 110.752V112C204.613 112.16 203.723 112.064 203.157 111.712C202.592 111.349 202.309 110.672 202.309 109.68V105.344H200.725V104H202.309V102.176L203.701 101.76V104H205.829V105.344ZM209.247 106.16C209.247 106.469 209.401 106.72 209.711 106.912C210.02 107.093 210.393 107.243 210.831 107.36C211.268 107.467 211.705 107.595 212.143 107.744C212.58 107.883 212.953 108.128 213.263 108.48C213.572 108.821 213.727 109.264 213.727 109.808C213.727 110.533 213.444 111.115 212.879 111.552C212.324 111.989 211.609 112.208 210.735 112.208C209.956 112.208 209.289 112.037 208.735 111.696C208.18 111.355 207.785 110.901 207.551 110.336L208.751 109.648C208.879 110.032 209.119 110.336 209.471 110.56C209.823 110.784 210.244 110.896 210.735 110.896C211.193 110.896 211.572 110.811 211.871 110.64C212.169 110.459 212.319 110.181 212.319 109.808C212.319 109.499 212.164 109.253 211.855 109.072C211.545 108.88 211.172 108.731 210.735 108.624C210.297 108.507 209.86 108.373 209.423 108.224C208.985 108.075 208.612 107.829 208.303 107.488C207.993 107.147 207.839 106.709 207.839 106.176C207.839 105.483 208.105 104.912 208.639 104.464C209.183 104.016 209.86 103.792 210.671 103.792C211.321 103.792 211.897 103.941 212.399 104.24C212.911 104.528 213.295 104.933 213.551 105.456L212.383 106.112C212.095 105.429 211.524 105.088 210.671 105.088C210.276 105.088 209.94 105.184 209.663 105.376C209.385 105.557 209.247 105.819 209.247 106.16Z" fill="#1F1F1F"/>
</svg>
